Coordinates
version=1
nRows=6
nColumns=36
inDegrees=yes

Units are S.I. units (second, meters, Newtons, ...)
If the header above contains a line with 'inDegrees', this indicates whether rotational values are in degrees (yes) or radians (no).

endheader
time	pelvis_tilt	pelvis_list	pelvis_rotation	pelvis_tx	pelvis_ty	pelvis_tz	hip_flexion_r	hip_adduction_r	hip_rotation_r	knee_angle_r	knee_angle_r_beta	ankle_angle_r	subtalar_angle_r	mtp_angle_r	hip_flexion_l	hip_adduction_l	hip_rotation_l	knee_angle_l	knee_angle_l_beta	ankle_angle_l	subtalar_angle_l	mtp_angle_l	lumbar_extension	lumbar_bending	lumbar_rotation	arm_flex_r	arm_add_r	arm_rot_r	elbow_flex_r	pro_sup_r	arm_flex_l	arm_add_l	arm_rot_l	elbow_flex_l	pro_sup_l
      1.23000000	     -6.40425980	      8.11177125	     -0.58488830	     -0.51730982	      1.16959808	     -0.57219475	     27.86633850	    -11.67606259	     -0.29174026	      7.25813149	      0.12667829	    -39.02166579	     -3.96627410	     -6.92856849	     31.81531923	      4.42945672	     -5.02893460	     20.60966579	      0.35970653	    -29.02116995	     -3.69686598	     -6.92856849	    -21.77467827	     -0.98347562	      2.72295511	    104.07265808	    -55.59495826	     84.38340259	     67.35674645	     97.94536131	    107.59845604	    -82.04128526	     79.45606854	     97.11788676	    107.55294699
      1.24000000	     -6.44247771	      8.03355340	     -0.78930747	     -0.50595757	      1.14866804	     -0.57244054	     28.43609890	    -11.80016327	     -0.82034557	      7.31028107	      0.12758847	    -39.00940315	     -3.96178087	     -7.40043840	     31.61718666	      4.36851931	     -4.55340879	     18.29612118	      0.31932756	    -30.00116579	     -3.68042230	     -7.40043840	    -21.86772060	     -0.64164213	      3.08293246	    108.65115199	    -56.40253329	     89.04184939	     68.24983609	     97.40339233	    132.48804131	    -84.56451230	    103.31949176	     98.84000931	    107.17978061
      1.25000000	     -6.47958610	      7.87863650	     -1.02136018	     -0.49460741	      1.12670055	     -0.57283403	     29.03179876	    -11.83494801	     -1.32147567	      7.49570874	      0.13082480	    -39.23859781	     -4.10029791	     -7.40769224	     31.56791398	      4.18342192	     -3.99623196	     16.53548347	      0.28859863	    -30.91663688	     -4.18291350	     -7.40769224	    -21.78289172	     -0.26546564	      5.55382080	    115.48062595	    -60.11762620	     96.00292432	     71.10272100	     98.56024522	    136.06702500	    -83.82249239	    105.45170486	     99.09892484	    107.82217463
      1.26000000	     -6.57930933	      7.82863704	     -1.28210842	     -0.48341567	      1.10346190	     -0.57290789	     29.80111317	    -11.90471662	     -1.48189387	      7.88252474	      0.13757601	    -39.92917778	     -4.59717709	     -7.47964123	     31.76849830	      4.01917128	     -3.54254953	     15.31362027	      0.26727309	    -32.23212824	     -5.27639735	     -7.47964123	    -21.77650711	     -0.25136748	      6.73307590	    121.06378242	    -62.09467851	    101.15132072	     73.31783649	     94.26115825	    163.56258652	    -83.52012081	    132.19336236	    101.13993489	    106.11670023
      1.27000000	     -6.66226266	      7.65655556	     -1.56285972	     -0.47211985	      1.07935101	     -0.57317419	     30.55001835	    -11.82209030	     -1.48410995	      8.45401587	      0.14755041	    -40.78120226	     -5.17025661	     -7.48838728	     32.13216887	      3.69704244	     -3.23165034	     14.71563751	      0.25683633	    -33.45386888	     -6.62944306	     -7.48838728	    -21.77142940	     -0.00739914	      9.10573443	    130.33136190	    -65.31694775	    109.80965578	     76.49677591	     94.57648659	    169.28599180	    -82.72504217	    136.70967680	    102.69522209	    105.21098753
      1.28000000	     -6.83488326	      7.51592507	     -1.87264838	     -0.46083229	      1.05418793	     -0.57332044	     31.47532153	    -11.69246247	     -1.09526953	      9.38352305	      0.16377337	    -41.31240537	     -5.68270696	     -7.49023409	     32.74600102	      3.34599877	     -3.13633468	     14.68403228	      0.25628471	    -34.42126992	     -8.14559308	     -7.49023409	    -21.71970765	      0.17319767	     11.64787904	    142.76054980	    -68.20176091	    121.37775814	     80.13845171	     94.79604952	    172.68720470	    -82.23051406	    138.74759049	    104.49009251	    105.64801214
